<?xml version="1.0" encoding="utf-8"?>
<!-- Generator: Adobe Illustrator 16.0.0, SVG Export Plug-In . SVG Version: 6.00 Build 0)  -->
<!DOCTYPE svg PUBLIC "-//W3C//DTD SVG 1.1//EN" "http://www.w3.org/Graphics/SVG/1.1/DTD/svg11.dtd">
<svg version="1.1" id="icons" xmlns="http://www.w3.org/2000/svg" xmlns:xlink="http://www.w3.org/1999/xlink" x="0px" y="0px"
	 width="64px" height="64px" viewBox="0 0 64 64" enable-background="new 0 0 64 64" xml:space="preserve">
<g>
	<g>
		<path fill="#E6E9ED" d="M23.11,43.93C24.96,40.97,28.261,39,32,39c3.74,0,7.04,1.97,8.891,4.93c0.89,1.4,1.45,3.021,1.58,4.761
			H42.46l-3.21,3.119l0.761,4.471c-1.07,1.27-2.431,2.27-3.98,2.91L32,57.08l-4.029,2.11c-1.551-0.641-2.91-1.641-3.98-2.91
			c-1.55-1.83-2.49-4.19-2.49-6.78C21.5,47.45,22.091,45.54,23.11,43.93z M34.601,53.04l1.609-4.94L32,45.04l-4.21,3.06l1.61,4.94
			H34.601z"/>
	</g>
	<g>
		<path fill="#656D78" d="M32,57.08l4.03,2.11C34.79,59.71,33.431,60,32,60c-1.43,0-2.79-0.29-4.029-0.81L32,57.08z"/>
	</g>
	<g>
		<path fill="#656D78" d="M39.209,51.842l3.253-3.181c0.111,1.341-0.033,2.723-0.476,4.083c-0.441,1.36-1.138,2.564-2.015,3.582
			L39.209,51.842z"/>
	</g>
	<g>
		<path fill="#656D78" d="M36.456,43.368l-2.021-4.077c1.31,0.309,2.579,0.873,3.736,1.714c1.158,0.841,2.088,1.875,2.784,3.023
			L36.456,43.368z"/>
	</g>
	<g>
		<path fill="#656D78" d="M27.546,43.367l-4.502,0.661c0.698-1.149,1.627-2.183,2.784-3.022c1.158-0.842,2.429-1.407,3.736-1.715
			L27.546,43.367z"/>
	</g>
	<g>
		<path fill="#656D78" d="M24.792,51.841l-0.763,4.485c-0.877-1.02-1.572-2.221-2.014-3.581c-0.443-1.362-0.588-2.745-0.477-4.084
			L24.792,51.841z"/>
	</g>
	<g>
		<polygon fill="#656D78" points="36.21,48.1 34.601,53.04 29.4,53.04 27.79,48.1 32,45.04 		"/>
	</g>
	<g>
		<polygon fill="#CCD1D9" points="60,7 56,11 52,11 48,11 44,11 40,11 36,11 32,11 28,11 24,11 20,11 16,11 12,11 8,11 4,7 		"/>
	</g>
	<g>
		<polygon fill="#AAB2BD" points="60,7 60,39 56,35 56,31 56,27 56,23 56,19 56,15 56,11 		"/>
	</g>
	<g>
		<polygon fill="#AAB2BD" points="8,31 8,35 4,39 4,7 8,11 8,15 8,19 8,23 8,27 		"/>
	</g>
	<g>
		<path fill="#E6E9ED" d="M60,7H4v32H1V7c0-1.66,1.341-3,3-3h56c1.66,0,3,1.34,3,3v32h-3V7z"/>
	</g>
</g>
<g>
	<g>
		<path d="M1,7.999c-0.553,0-1-0.448-1-1c0-2.206,1.794-4,4-4c0.553,0,1,0.448,1,1s-0.447,1-1,1c-1.103,0-2,0.897-2,2
			C2,7.551,1.553,7.999,1,7.999z"/>
	</g>
	<g>
		<path d="M63,7.998c-0.553,0-1-0.448-1-1c0-1.103-0.897-2-2-2c-0.553,0-1-0.448-1-1s0.447-1,1-1c2.206,0,4,1.794,4,4
			C64,7.55,63.553,7.998,63,7.998z"/>
	</g>
	<g>
		<path d="M60,4.999H4c-0.553,0-1-0.448-1-1s0.447-1,1-1h56c0.553,0,1,0.448,1,1S60.553,4.999,60,4.999z"/>
	</g>
	<g>
		<path d="M60,7.999H4c-0.553,0-1-0.448-1-1s0.447-1,1-1h56c0.553,0,1,0.448,1,1S60.553,7.999,60,7.999z"/>
	</g>
	<g>
		<path d="M1,39.996c-0.553,0-1-0.447-1-1V6.999c0-0.552,0.447-1,1-1s1,0.448,1,1v31.997C2,39.549,1.553,39.996,1,39.996z"/>
	</g>
	<g>
		<path d="M4,39.996c-0.553,0-1-0.447-1-1V6.999c0-0.552,0.447-1,1-1s1,0.448,1,1v31.997C5,39.549,4.553,39.996,4,39.996z"/>
	</g>
	<g>
		<path d="M63,39.996c-0.553,0-1-0.447-1-1V6.999c0-0.552,0.447-1,1-1s1,0.448,1,1v31.997C64,39.549,63.553,39.996,63,39.996z"/>
	</g>
	<g>
		<path d="M60,39.996c-0.553,0-1-0.447-1-1V6.999c0-0.552,0.447-1,1-1s1,0.448,1,1v31.997C61,39.549,60.553,39.996,60,39.996z"/>
	</g>
	<g>
		<path d="M4,39.996H1c-0.553,0-1-0.447-1-1s0.447-1,1-1h3c0.553,0,1,0.447,1,1S4.553,39.996,4,39.996z"/>
	</g>
	<g>
		<path d="M63,39.996h-3c-0.553,0-1-0.447-1-1s0.447-1,1-1h3c0.553,0,1,0.447,1,1S63.553,39.996,63,39.996z"/>
	</g>
	<g>
		<path d="M8,11.999c-0.256,0-0.512-0.098-0.707-0.293l-4-4c-0.391-0.391-0.391-1.023,0-1.414s1.023-0.391,1.414,0l4,4
			c0.391,0.391,0.391,1.023,0,1.414C8.512,11.901,8.256,11.999,8,11.999z"/>
	</g>
	<g>
		<path d="M60,39.996c-0.256,0-0.512-0.098-0.707-0.293l-4-4c-0.391-0.391-0.391-1.023,0-1.414s1.023-0.391,1.414,0l4,4
			c0.391,0.391,0.391,1.023,0,1.414C60.512,39.898,60.256,39.996,60,39.996z"/>
	</g>
	<g>
		<path d="M56,11.999c-0.256,0-0.512-0.098-0.707-0.293c-0.391-0.391-0.391-1.023,0-1.414l4-4c0.391-0.391,1.023-0.391,1.414,0
			s0.391,1.023,0,1.414l-4,4C56.512,11.901,56.256,11.999,56,11.999z"/>
	</g>
	<g>
		<path d="M4,39.996c-0.256,0-0.512-0.098-0.707-0.293c-0.391-0.391-0.391-1.023,0-1.414l4-4c0.391-0.391,1.023-0.391,1.414,0
			s0.391,1.023,0,1.414l-4,4C4.512,39.898,4.256,39.996,4,39.996z"/>
	</g>
	<g>
		<path d="M56,35.996H8c-0.553,0-1-0.447-1-1V10.999c0-0.552,0.447-1,1-1h48c0.553,0,1,0.448,1,1v23.997
			C57,35.549,56.553,35.996,56,35.996z M9,33.996h46V11.999H9V33.996z"/>
	</g>
	<g>
		<path d="M56,15.999H8c-0.553,0-1-0.448-1-1s0.447-1,1-1h48c0.553,0,1,0.448,1,1S56.553,15.999,56,15.999z"/>
	</g>
	<g>
		<path d="M56,19.999H8c-0.553,0-1-0.448-1-1s0.447-1,1-1h48c0.553,0,1,0.448,1,1S56.553,19.999,56,19.999z"/>
	</g>
	<g>
		<path d="M56,24H8c-0.553,0-1-0.448-1-1s0.447-1,1-1h48c0.553,0,1,0.448,1,1S56.553,24,56,24z"/>
	</g>
	<g>
		<path d="M56,27.999H8c-0.553,0-1-0.448-1-1s0.447-1,1-1h48c0.553,0,1,0.448,1,1S56.553,27.999,56,27.999z"/>
	</g>
	<g>
		<path d="M56,31.998H8c-0.553,0-1-0.448-1-1s0.447-1,1-1h48c0.553,0,1,0.448,1,1S56.553,31.998,56,31.998z"/>
	</g>
	<g>
		<path d="M12,35.996c-0.553,0-1-0.447-1-1V10.999c0-0.552,0.447-1,1-1s1,0.448,1,1v23.997C13,35.549,12.553,35.996,12,35.996z"/>
	</g>
	<g>
		<path d="M16,35.996c-0.553,0-1-0.447-1-1V10.999c0-0.552,0.447-1,1-1s1,0.448,1,1v23.997C17,35.549,16.553,35.996,16,35.996z"/>
	</g>
	<g>
		<path d="M20,35.996c-0.553,0-1-0.447-1-1V10.999c0-0.552,0.447-1,1-1s1,0.448,1,1v23.997C21,35.549,20.553,35.996,20,35.996z"/>
	</g>
	<g>
		<path d="M24,35.996c-0.553,0-1-0.447-1-1V10.999c0-0.552,0.447-1,1-1s1,0.448,1,1v23.997C25,35.549,24.553,35.996,24,35.996z"/>
	</g>
	<g>
		<path d="M28,35.996c-0.553,0-1-0.447-1-1V10.999c0-0.552,0.447-1,1-1s1,0.448,1,1v23.997C29,35.549,28.553,35.996,28,35.996z"/>
	</g>
	<g>
		<path d="M32,35.996c-0.553,0-1-0.447-1-1V10.999c0-0.552,0.447-1,1-1s1,0.448,1,1v23.997C33,35.549,32.553,35.996,32,35.996z"/>
	</g>
	<g>
		<path d="M36,35.996c-0.553,0-1-0.447-1-1V10.999c0-0.552,0.447-1,1-1s1,0.448,1,1v23.997C37,35.549,36.553,35.996,36,35.996z"/>
	</g>
	<g>
		<path d="M40,35.996c-0.553,0-1-0.447-1-1V10.999c0-0.552,0.447-1,1-1s1,0.448,1,1v23.997C41,35.549,40.553,35.996,40,35.996z"/>
	</g>
	<g>
		<path d="M44,35.996c-0.553,0-1-0.447-1-1V10.999c0-0.552,0.447-1,1-1s1,0.448,1,1v23.997C45,35.549,44.553,35.996,44,35.996z"/>
	</g>
	<g>
		<path d="M48,35.996c-0.553,0-1-0.447-1-1V10.999c0-0.552,0.447-1,1-1s1,0.448,1,1v23.997C49,35.549,48.553,35.996,48,35.996z"/>
	</g>
	<g>
		<path d="M52,35.996c-0.553,0-1-0.447-1-1V10.999c0-0.552,0.447-1,1-1s1,0.448,1,1v23.997C53,35.549,52.553,35.996,52,35.996z"/>
	</g>
	<g>
		<g>
			<path d="M32,61.002c-6.341,0-11.5-5.159-11.5-11.5s5.159-11.5,11.5-11.5s11.5,5.159,11.5,11.5S38.341,61.002,32,61.002z
				 M32,40.002c-5.238,0-9.5,4.262-9.5,9.5s4.262,9.5,9.5,9.5s9.5-4.262,9.5-9.5S37.238,40.002,32,40.002z"/>
		</g>
		<g>
			<path d="M40.891,44.93c-0.048,0-0.097-0.003-0.146-0.011l-4.407-0.647c-0.325-0.048-0.606-0.252-0.752-0.547l-1.954-3.965
				c-0.244-0.496-0.04-1.095,0.455-1.34c0.497-0.242,1.095-0.039,1.34,0.455l1.722,3.494l3.888,0.571
				c0.546,0.08,0.924,0.588,0.844,1.135C41.806,44.572,41.379,44.93,40.891,44.93z"/>
		</g>
		<g>
			<path d="M40.014,57.279c-0.479,0-0.901-0.344-0.984-0.831l-0.766-4.471c-0.056-0.324,0.052-0.656,0.288-0.886l3.208-3.123
				c0.395-0.384,1.027-0.376,1.414,0.02c0.385,0.396,0.377,1.028-0.02,1.414l-2.831,2.756L41,56.11
				c0.094,0.545-0.272,1.062-0.816,1.154C40.126,57.274,40.069,57.279,40.014,57.279z"/>
		</g>
		<g>
			<path d="M27.971,60.192c-0.36,0-0.708-0.194-0.887-0.536c-0.257-0.489-0.067-1.093,0.422-1.35l4.03-2.112
				c0.289-0.152,0.637-0.152,0.928,0l4.031,2.112c0.489,0.256,0.679,0.86,0.422,1.35c-0.256,0.488-0.862,0.68-1.35,0.422L32,58.209
				l-3.566,1.869C28.286,60.155,28.127,60.192,27.971,60.192z"/>
		</g>
		<g>
			<path d="M23.986,57.279c-0.056,0-0.112-0.005-0.17-0.015c-0.544-0.093-0.91-0.61-0.816-1.154l0.678-3.952l-2.834-2.756
				c-0.396-0.385-0.404-1.019-0.02-1.414c0.386-0.395,1.019-0.406,1.414-0.02l3.211,3.123c0.236,0.229,0.344,0.561,0.288,0.886
				l-0.767,4.471C24.888,56.936,24.465,57.279,23.986,57.279z"/>
		</g>
		<g>
			<path d="M23.11,44.93c-0.488,0-0.915-0.357-0.988-0.854c-0.08-0.547,0.298-1.055,0.844-1.135l3.888-0.571l1.721-3.494
				c0.245-0.494,0.845-0.696,1.34-0.455c0.495,0.244,0.699,0.844,0.455,1.34l-1.953,3.965c-0.146,0.295-0.427,0.499-0.752,0.547
				l-4.407,0.647C23.207,44.927,23.158,44.93,23.11,44.93z"/>
		</g>
		<g>
			<path d="M34.6,54.041H29.4c-0.433,0-0.817-0.278-0.951-0.69l-1.607-4.941c-0.134-0.412,0.013-0.863,0.363-1.118l4.207-3.059
				c0.35-0.256,0.826-0.256,1.176,0l4.207,3.059c0.351,0.255,0.497,0.706,0.363,1.118l-1.607,4.941
				C35.417,53.763,35.032,54.041,34.6,54.041z M30.127,52.041h3.746l1.158-3.56L32,46.277l-3.031,2.204L30.127,52.041z"/>
		</g>
	</g>
</g>
</svg>
