<?xml version="1.0" encoding="utf-8"?>
<!-- Generator: Adobe Illustrator 16.0.0, SVG Export Plug-In . SVG Version: 6.00 Build 0)  -->
<!DOCTYPE svg PUBLIC "-//W3C//DTD SVG 1.1//EN" "http://www.w3.org/Graphics/SVG/1.1/DTD/svg11.dtd">
<svg version="1.1" id="icons" xmlns="http://www.w3.org/2000/svg" xmlns:xlink="http://www.w3.org/1999/xlink" x="0px" y="0px"
	 width="64px" height="64px" viewBox="0 0 64 64" enable-background="new 0 0 64 64" xml:space="preserve">
<g>
	<g>
		<path fill="#E6E9ED" d="M32.5,4L32,5H18l-0.5-1H6v49h25h0.01C30.36,51.29,30,49.44,30,47.5c0-3.02,0.87-5.84,2.37-8.22
			c2.09-3.351,5.45-5.851,9.399-6.82c0.721-0.19,1.471-0.31,2.23-0.39V4H32.5z"/>
	</g>
	<g>
		<polygon fill="#ED5565" points="39.02,10 38.02,12 39.02,14 34.02,14 34.02,10 		"/>
	</g>
	<g>
		<path fill="#656D78" d="M32.37,39.28c2.09-3.351,5.45-5.851,9.399-6.82v0.01l-2.89,5.86l-6.5,0.95H32.37z"/>
	</g>
	<g>
		<path fill="#656D78" d="M60.95,46.3C60.98,46.69,61,47.1,61,47.5c0,3.82-1.38,7.32-3.67,10.01l-1.13-6.6l4.74-4.61H60.95z"/>
	</g>
	<g>
		<path fill="#F5F7FA" d="M47,32.07c0.76,0.08,1.51,0.199,2.23,0.39v0.01l2.89,5.86l6.5,0.95h0.01c1.3,2.06,2.13,4.45,2.32,7.02
			h-0.01l-4.74,4.61l1.13,6.6c-1.58,1.87-3.59,3.36-5.88,4.3L45.5,58.69l-5.95,3.119c-2.29-0.939-4.3-2.43-5.88-4.3
			c-0.41-0.479-0.79-0.99-1.13-1.52c-0.62-0.931-1.13-1.931-1.53-2.99C30.36,51.29,30,49.44,30,47.5c0-3.02,0.87-5.84,2.37-8.22
			h0.01l6.5-0.95l2.89-5.86v-0.01c0.721-0.19,1.471-0.31,2.23-0.39C44.49,32.02,44.99,32,45.5,32S46.51,32.02,47,32.07z M49.51,53
			L52,45.37l-6.5-4.72L39,45.37L41.48,53H49.51z"/>
	</g>
	<g>
		<path fill="#656D78" d="M58.63,39.28c-2.09-3.351-5.45-5.851-9.399-6.82v0.01l2.89,5.86l6.5,0.95H58.63z"/>
	</g>
	<g>
		<path fill="#656D78" d="M30.05,46.3C30.02,46.69,30,47.1,30,47.5c0,3.82,1.38,7.32,3.67,10.01l1.13-6.6l-4.74-4.61H30.05z"/>
	</g>
	<g>
		<polygon fill="#FFCE54" points="34,1 32.5,4 32,5 18,5 17.5,4 16,1 		"/>
	</g>
	<g>
		<path fill="#656D78" d="M45.5,58.69l5.95,3.119C49.62,62.58,47.61,63,45.5,63s-4.12-0.42-5.95-1.19L45.5,58.69z"/>
	</g>
	<g>
		<path fill="#545C66" d="M6,53h25h0.01c0.4,1.06,0.91,2.06,1.53,2.99L32.53,56H3.25H3V1h13l1.5,3H6V53z"/>
	</g>
	<g>
		<path fill="#656D78" d="M13.02,42.01c1.66,0,3,1.34,3,3s-1.34,3-3,3c-1.659,0-3-1.34-3-3S11.36,42.01,13.02,42.01z"/>
	</g>
	<g>
		<path fill="#545C66" d="M47,1v31.07C46.51,32.02,46.01,32,45.5,32s-1.01,0.02-1.5,0.07V4H32.5L34,1H47z"/>
	</g>
	<g>
		<path fill="#656D78" d="M37.02,19c0,1.66-1.34,3-3,3c-1.659,0-3-1.34-3-3c0-1.65,1.341-3,3-3C35.68,16,37.02,17.35,37.02,19z"/>
	</g>
	<g>
		<polygon fill="#656D78" points="52,45.37 49.51,53 41.48,53 39,45.37 45.5,40.65 		"/>
	</g>
</g>
<g>
	<g>
		<path d="M3,56.993c-0.553,0-1-0.447-1-1V1c0-0.552,0.447-1,1-1h43.997c0.553,0,1,0.448,1,1l0.001,31.072c0,0.552-0.447,1-1,1
			s-1-0.448-1-1L45.997,2H4v53.993C4,56.546,3.553,56.993,3,56.993z"/>
	</g>
	<g>
		<path d="M31.005,53.997L31.005,53.997L6,53.993c-0.553,0-1-0.448-1-1V4c0-0.552,0.447-1,1-1s1,0.448,1,1v47.993l24.005,0.004
			c0.553,0,1,0.448,1,1C32.005,53.55,31.557,53.997,31.005,53.997z"/>
	</g>
	<g>
		<path d="M43.998,33.072c-0.553,0-1-0.448-1-1V4c0-0.552,0.447-1,1-1s1,0.448,1,1v28.072
			C44.998,32.625,44.551,33.072,43.998,33.072z"/>
	</g>
	<g>
		<g>
			<path d="M18,6c-0.367,0-0.72-0.202-0.896-0.553l-2-4c-0.247-0.494-0.047-1.095,0.447-1.342s1.094-0.047,1.342,0.447l2,4
				c0.247,0.494,0.047,1.095-0.447,1.342C18.303,5.966,18.15,6,18,6z"/>
		</g>
		<g>
			<path d="M31.998,6c-0.15,0-0.303-0.034-0.446-0.105c-0.494-0.247-0.694-0.848-0.447-1.342l2-4
				c0.248-0.494,0.848-0.694,1.342-0.447s0.694,0.848,0.447,1.342l-2,4C32.718,5.798,32.365,6,31.998,6z"/>
		</g>
		<g>
			<path d="M31.999,6h-14c-0.553,0-1-0.448-1-1s0.447-1,1-1h14c0.553,0,1,0.448,1,1S32.552,6,31.999,6z"/>
		</g>
	</g>
	<g>
		<path d="M43.998,5H32.499c-0.553,0-1-0.448-1-1s0.447-1,1-1h11.499c0.553,0,1,0.448,1,1S44.551,5,43.998,5z"/>
	</g>
	<g>
		<path d="M17.499,5H6C5.447,5,5,4.552,5,4s0.447-1,1-1h11.499c0.553,0,1,0.448,1,1S18.052,5,17.499,5z"/>
	</g>
	<g>
		<g>
			<path d="M13.02,49.006c-2.206,0-4-1.794-4-4s1.794-4,4-4s4,1.794,4,4S15.226,49.006,13.02,49.006z M13.02,43.006
				c-1.103,0-2,0.897-2,2s0.897,2,2,2s2-0.897,2-2S14.122,43.006,13.02,43.006z"/>
		</g>
		<g>
			<path d="M13.05,46.006c-0.553,0-1.005-0.447-1.005-1s0.442-1,0.994-1h0.011c0.552,0,1,0.447,1,1S13.602,46.006,13.05,46.006z"/>
		</g>
	</g>
	<g>
		<g>
			<path d="M34.02,22.998c-2.206,0-4-1.794-4-4s1.794-4,4-4s4,1.794,4,4S36.226,22.998,34.02,22.998z M34.02,16.998
				c-1.103,0-2,0.897-2,2s0.897,2,2,2s2-0.897,2-2S35.122,16.998,34.02,16.998z"/>
		</g>
		<g>
			<path d="M34.02,19.998c-0.553,0-1-0.448-1-1v-9c0-0.552,0.447-1,1-1s1,0.448,1,1v9C35.02,19.55,34.572,19.998,34.02,19.998z"/>
		</g>
		<g>
			<path d="M39.019,10.998H34.02c-0.553,0-1-0.448-1-1s0.447-1,1-1h4.999c0.553,0,1,0.448,1,1S39.571,10.998,39.019,10.998z"/>
		</g>
		<g>
			<path d="M39.019,14.998H34.02c-0.553,0-1-0.448-1-1s0.447-1,1-1h4.999c0.553,0,1,0.448,1,1S39.571,14.998,39.019,14.998z"/>
		</g>
		<g>
			<path d="M39.02,14.998c-0.367,0-0.72-0.202-0.896-0.553l-1-2c-0.141-0.282-0.141-0.613,0-0.895l1-2
				c0.247-0.494,0.848-0.694,1.342-0.447c0.494,0.247,0.694,0.848,0.447,1.342l-0.776,1.553l0.776,1.553
				c0.247,0.494,0.047,1.095-0.447,1.342C39.322,14.964,39.17,14.998,39.02,14.998z"/>
		</g>
	</g>
	<g>
		<path d="M13.013,40.012c-0.05,0-0.101-0.004-0.152-0.012c-0.546-0.083-0.921-0.594-0.837-1.14
			c2.06-13.477,15.151-17.651,15.708-17.822c0.53-0.161,1.086,0.135,1.249,0.661c0.163,0.527-0.133,1.087-0.66,1.25
			C28.196,22.988,15.867,26.946,14,39.163C13.925,39.657,13.498,40.012,13.013,40.012z"/>
	</g>
	<g>
		<path d="M26.008,26.006c-0.19,0-0.384-0.054-0.554-0.168c-0.46-0.307-0.584-0.928-0.277-1.387l2.003-3.002
			c0.307-0.458,0.928-0.584,1.387-0.277c0.46,0.307,0.584,0.928,0.277,1.387l-2.003,3.002C26.647,25.85,26.331,26.006,26.008,26.006
			z"/>
	</g>
	<g>
		<path d="M28.02,23.016c-0.104,0-0.211-0.017-0.316-0.052l-3.002-1.001c-0.523-0.175-0.807-0.741-0.632-1.265
			c0.175-0.523,0.735-0.809,1.265-0.632l3.002,1.001c0.523,0.175,0.807,0.741,0.632,1.265C28.828,22.751,28.438,23.016,28.02,23.016
			z"/>
	</g>
	<g>
		<path d="M32.534,56.993H3.251c-0.553,0-1-0.447-1-1s0.447-1,1-1h29.283c0.553,0,1,0.447,1,1S33.087,56.993,32.534,56.993z"/>
	</g>
	<g>
		<g>
			<path d="M13.021,22.008c-0.256,0-0.512-0.098-0.707-0.293l-1.998-1.998c-0.391-0.391-0.391-1.023,0-1.414s1.023-0.391,1.414,0
				l1.998,1.998c0.391,0.391,0.391,1.023,0,1.414C13.533,21.91,13.277,22.008,13.021,22.008z"/>
		</g>
		<g>
			<path d="M11.023,22.008c-0.256,0-0.512-0.098-0.707-0.293c-0.391-0.391-0.391-1.023,0-1.414l1.998-1.998
				c0.391-0.391,1.023-0.391,1.414,0s0.391,1.023,0,1.414l-1.998,1.998C11.535,21.91,11.279,22.008,11.023,22.008z"/>
		</g>
	</g>
	<g>
		<g>
			<path d="M22.001,13.995c-0.256,0-0.512-0.098-0.707-0.293l-1.998-1.998c-0.391-0.391-0.391-1.023,0-1.414s1.023-0.391,1.414,0
				l1.998,1.998c0.391,0.391,0.391,1.023,0,1.414C22.513,13.897,22.257,13.995,22.001,13.995z"/>
		</g>
		<g>
			<path d="M20.003,13.995c-0.256,0-0.512-0.098-0.707-0.293c-0.391-0.391-0.391-1.023,0-1.414l1.998-1.998
				c0.391-0.391,1.023-0.391,1.414,0s0.391,1.023,0,1.414l-1.998,1.998C20.515,13.897,20.259,13.995,20.003,13.995z"/>
		</g>
	</g>
	<g>
		<g>
			<path d="M25.011,44.023c-0.256,0-0.512-0.098-0.707-0.293l-1.998-1.998c-0.391-0.391-0.391-1.023,0-1.414s1.023-0.391,1.414,0
				l1.998,1.998c0.391,0.391,0.391,1.023,0,1.414C25.522,43.926,25.267,44.023,25.011,44.023z"/>
		</g>
		<g>
			<path d="M23.013,44.023c-0.256,0-0.512-0.098-0.707-0.293c-0.391-0.391-0.391-1.023,0-1.414l1.998-1.998
				c0.391-0.391,1.023-0.391,1.414,0s0.391,1.023,0,1.414L23.72,43.73C23.524,43.926,23.269,44.023,23.013,44.023z"/>
		</g>
	</g>
	<g>
		<g>
			<path d="M32.995,32.997c-0.256,0-0.512-0.098-0.707-0.293l-1.998-1.998c-0.391-0.391-0.391-1.023,0-1.414s1.023-0.391,1.414,0
				l1.998,1.998c0.391,0.391,0.391,1.023,0,1.414C33.507,32.899,33.251,32.997,32.995,32.997z"/>
		</g>
		<g>
			<path d="M30.997,32.997c-0.256,0-0.512-0.098-0.707-0.293c-0.391-0.391-0.391-1.023,0-1.414l1.998-1.998
				c0.391-0.391,1.023-0.391,1.414,0s0.391,1.023,0,1.414l-1.998,1.998C31.509,32.899,31.253,32.997,30.997,32.997z"/>
		</g>
	</g>
	<g>
		<g>
			<path d="M45.5,64C36.402,64,29,56.598,29,47.5S36.402,31,45.5,31S62,38.402,62,47.5S54.598,64,45.5,64z M45.5,33
				C37.505,33,31,39.505,31,47.5S37.505,62,45.5,62S60,55.495,60,47.5S53.495,33,45.5,33z"/>
		</g>
		<g>
			<path d="M58.621,40.271c-0.048,0-0.097-0.003-0.146-0.011l-6.503-0.95c-0.325-0.047-0.606-0.252-0.752-0.547l-2.888-5.854
				c-0.245-0.495-0.041-1.095,0.454-1.339c0.497-0.244,1.095-0.041,1.339,0.455l2.655,5.384l5.983,0.874
				c0.547,0.08,0.925,0.587,0.845,1.134C59.537,39.913,59.109,40.271,58.621,40.271z"/>
		</g>
		<g>
			<path d="M57.332,58.502c-0.479,0-0.9-0.344-0.984-0.83l-1.134-6.594c-0.056-0.325,0.052-0.656,0.288-0.887l4.738-4.615
				c0.395-0.384,1.027-0.378,1.414,0.02c0.385,0.396,0.377,1.028-0.02,1.414l-4.36,4.248l1.044,6.074
				c0.094,0.545-0.271,1.062-0.815,1.155C57.445,58.497,57.388,58.502,57.332,58.502z"/>
		</g>
		<g>
			<path d="M51.45,62.81c-0.156,0-0.315-0.037-0.464-0.114L45.5,59.813l-5.486,2.882c-0.49,0.255-1.093,0.068-1.351-0.421
				c-0.257-0.488-0.068-1.094,0.421-1.351l5.951-3.126c0.291-0.152,0.639-0.152,0.93,0l5.951,3.126
				c0.489,0.257,0.678,0.862,0.421,1.351C52.157,62.615,51.81,62.81,51.45,62.81z"/>
		</g>
		<g>
			<path d="M33.668,58.502c-0.056,0-0.113-0.005-0.171-0.015c-0.544-0.094-0.909-0.61-0.815-1.155l1.044-6.074l-4.362-4.248
				c-0.396-0.386-0.404-1.019-0.02-1.414c0.386-0.396,1.019-0.403,1.414-0.02l4.74,4.615c0.236,0.23,0.344,0.562,0.288,0.887
				l-1.134,6.594C34.568,58.158,34.146,58.502,33.668,58.502z"/>
		</g>
		<g>
			<path d="M32.378,40.271c-0.488,0-0.916-0.358-0.988-0.855c-0.08-0.547,0.298-1.054,0.845-1.134l5.984-0.874l2.655-5.384
				c0.244-0.494,0.844-0.697,1.339-0.455c0.495,0.245,0.699,0.844,0.454,1.339l-2.888,5.854c-0.146,0.295-0.427,0.5-0.752,0.547
				l-6.504,0.95C32.475,40.269,32.426,40.271,32.378,40.271z"/>
		</g>
		<g>
			<path d="M49.515,54h-8.032c-0.434,0-0.817-0.279-0.951-0.69l-2.482-7.634c-0.134-0.412,0.013-0.864,0.363-1.119l6.5-4.721
				c0.352-0.254,0.824-0.254,1.176,0l6.5,4.721c0.351,0.255,0.497,0.707,0.363,1.119l-2.485,7.634
				C50.331,53.722,49.947,54,49.515,54z M42.209,52h6.579l2.036-6.252L45.5,41.882l-5.324,3.866L42.209,52z"/>
		</g>
	</g>
</g>
</svg>
